{"title":"Americas.Got.Talent.S10E22.Semi-Final.1.Results.HDTV.x264-TinyE","uid":12348736,"size":367550798,"categoryP":"video","categoryS":"tv_shows","magnet":"?xt=urn:btih:1274678517d04d38c9354ceaa9cdf188e5d92a30&amp;dn=Americas.Got.Talent.S10E22.Semi-Final.1.Results.HDTV.x264-TinyE&amp;tr=udp%3A%2F%2Ftracker.openbittorrent.com%3A80&amp;tr=udp%3A%2F%2Fopen.demonii.com%3A1337&amp;tr=udp%3A%2F%2Ftracker.coppersurfer.tk%3A6969&amp;tr=udp%3A%2F%2Fexodus.desync.com%3A6969","seeders":11,"leechers":0,"uploader":"TvTeam","files":3,"time":1441386794,"description":"------------------------------------------------------------------------\n\n &lt;a href=&quot; https://www.torrenting.com&quot; rel=&quot;nofollow&quot; target=&quot;_NEW&quot;&gt; https://www.torrenting.com&lt;/a&gt;\n\nSign up is OPEN - for time being. Come and have fun.\n\n------------------------------------------------------------------------\n.[center]\nShow Name : The Finals: Part 1\nEpisdode : 22\nAir Date : 15 Sep. 2015\nCast : Melanie Brown,Nick Cannon,Heidi Klum,Howie Mandel,\n[plot]\n\nEnglish\n\n \n\n[/plot]\n\n[info]\n[quote]General\nFormat                                   : MPEG-4\nFormat profile                           : Base Media\nCodec ID                                 : isom\nFile size                                : 351 MiB\nDuration                                 : 42mn 16s\nOverall bit rate mode                    : Variable\nOverall bit rate                         : 1 159 Kbps\nWriting application                      : Lavf54.63.104\n\nVideo\nID                                       : 1\nFormat                                   : AVC\nFormat/Info                              : Advanced Video Codec\nFormat profile                           : &lt;a class=&quot;__cf_email__&quot; href=&quot;/cdn-cgi/l/email-protection&quot; data-cfemail=&quot;420f232b2c020e716c72&quot;&gt;[email&amp;#160;protected]&lt;/a&gt;&lt;script data-cfhash='f9e31' type=&quot;text/javascript&quot;&gt;\n/* &lt;![CDATA[ */!function(){try{var t=&quot;currentScript&quot;in document?document.currentScript:function(){for(var t=document.getElementsByTagName(&quot;script&quot;),e=t.length;e--;)if(t[e].getAttribute(&quot;data-cfhash&quot;))return t[e]}();if(t&amp;&amp;t.previousSibling){var e,r,n,i,c=t.previousSibling,a=c.getAttribute(&quot;data-cfemail&quot;);if(a){for(e=&quot;&quot;,r=parseInt(a.substr(0,2),16),n=2;a.length-n;n+=2)i=parseInt(a.substr(n,2),16)^r,e+=String.fromCharCode(i);e=document.createTextNode(e),c.parentNode.replaceChild(e,c)}t.parentNode.removeChild(t);}}catch(u){}}()/* ]]&gt; */&lt;/script&gt;\nFormat settings, CABAC                   : Yes\nFormat settings, ReFrames                : 3 frames\nCodec ID                                 : avc1\nCodec ID/Info                            : Advanced Video Coding\nDuration                                 : 42mn 16s\nBit rate mode                            : Constant\nBit rate                                 : 1 025 Kbps\nWidth                                    : 720 pixels\nHeight                                   : 400 pixels\nDisplay aspect ratio                     : 16:9\nFrame rate mode                          : Variable\nFrame rate                               : 29.970 fps\nMinimum frame rate                       : 29.970 fps\nMaximum frame rate                       : 30.000 fps\nStandard                                 : NTSC\nColor space                              : YUV\nChroma subsampling                       : 4:2:0\nBit depth                                : 8 bits\nScan type                                : Progressive\nBits/(Pixel*Frame)                       : 0.119\nStream size                              : 310 MiB (88%)\n\nAudio\nID                                       : 2\nFormat                                   : AAC\nFormat/Info                              : Advanced Audio Codec\nFormat profile                           : LC\nCodec ID                                 : 40\nDuration                                 : 42mn 16s\nDuration_LastFrame                       : -21ms\nBit rate mode                            : Variable\nBit rate                                 : 125 Kbps\nMaximum bit rate                         : 128 Kbps\nChannel(s)                               : 2 channels\nChannel positions                        : Front: L R\nSampling rate                            : 48.0 KHz\nCompression mode                         : Lossy\nStream size                              : 37.9 MiB (11%)\nLanguage                                 : English\n\nText\nID                                       : 1-1\nFormat                                   : EIA-708\nMuxing mode                              : AVC / SCTE 128 / DTVCC Transport\nMuxing mode, more info                   : Muxed in Video #1\nDuration                                 : 42mn 16s\nBit rate mode                            : Constant\nStream size                              : 0.00 Byte (0%)\nEncoded stream size                      : 0.00 Byte (0%)\n\n\n[/quote]\n[/info][/center]","torrent":{"xt":"urn:btih:1274678517d04d38c9354ceaa9cdf188e5d92a30","amp;dn":"Americas.Got.Talent.S10E22.Semi-Final.1.Results.HDTV.x264-TinyE","amp;tr":["udp%3A%2F%2Ftracker.openbittorrent.com%3A80","udp%3A%2F%2Fopen.demonii.com%3A1337","udp%3A%2F%2Ftracker.coppersurfer.tk%3A6969","udp%3A%2F%2Fexodus.desync.com%3A6969"],"infoHash":"1274678517d04d38c9354ceaa9cdf188e5d92a30","infoHashBuffer":{"type":"Buffer","data":[18,116,103,133,23,208,77,56,201,53,76,234,169,205,241,136,229,217,42,48]},"announce":[],"urlList":[]}}